<svg xmlns="http://www.w3.org/2000/svg" xmlns:xlink="http://www.w3.org/1999/xlink" fill="none" version="1.1" width="1287" height="1287" viewBox="0 0 1287 1287"><defs><clipPath id="master_svg0_3_512"><rect x="-21" y="-21" width="1329" height="1329" rx="0"/></clipPath><clipPath id="master_svg1_3_128"><rect x="195" y="196" width="889" height="889" rx="444.5"/></clipPath><filter id="master_svg2_3_108" filterUnits="objectBoundingBox" color-interpolation-filters="sRGB" x="-0.1941747572815534" y="-0.1941747572815534" width="1.3883495145631068" height="1.3883495145631068"><feFlood flood-opacity="0" result="BackgroundImageFix"/><feColorMatrix in="SourceAlpha" type="matrix" values="0 0 0 0 0 0 0 0 0 0 0 0 0 0 0 0 0 0 127 0"/><feOffset dy="0" dx="0"/><feGaussianBlur stdDeviation="25"/><feColorMatrix type="matrix" values="0 0 0 0 0.2862745225429535 0 0 0 0 0.43529412150382996 0 0 0 0 0.7568627595901489 0 0 0 0.30000001192092896 0"/><feBlend mode="normal" in2="BackgroundImageFix" result="effect1_dropShadow"/><feBlend mode="normal" in="SourceGraphic" in2="effect1_dropShadow" result="shape"/></filter><clipPath id="master_svg3_3_108"><rect x="374.48000049591064" y="375.48000049591064" width="530.0399990081787" height="530.0399990081787" rx="265.01999950408936"/></clipPath><clipPath id="master_svg4_3_10"><rect x="580.5" y="455.5" width="119" height="106" rx="0"/></clipPath><clipPath id="master_svg5_3_7"><rect x="567.5" y="437.5" width="146" height="50" rx="25"/></clipPath><clipPath id="master_svg6_3_179/3_143"><rect x="981.4923706054688" y="219" width="134" height="134" rx="67"/></clipPath><clipPath id="master_svg7_3_180/3_143"><rect x="403.19091796875" y="1147.683349609375" width="134" height="134" rx="67"/></clipPath><clipPath id="master_svg8_3_181/3_143"><rect x="824.9999389648438" y="1214" width="134" height="134" rx="67"/></clipPath><clipPath id="master_svg9_3_182/3_143"><rect x="1168.6834106445312" y="963.492431640625" width="134" height="134" rx="67"/></clipPath><clipPath id="master_svga_3_183/3_143"><rect x="1226.9999389648438" y="554" width="134" height="134" rx="67"/></clipPath><clipPath id="master_svgb_3_185/3_143"><rect x="245.99993896484375" y="403.19091796875" width="134" height="134" rx="67"/></clipPath><clipPath id="master_svgc_3_186/3_143"><rect x="177.99993896484375" y="806.0000610351562" width="134" height="134" rx="67"/></clipPath><clipPath id="master_svgd_3_143"><rect x="572.9999389648438" y="150" width="134" height="134" rx="67"/></clipPath></defs><g clip-path="url(#master_svg0_3_512)"><g clip-path="url(#master_svg1_3_128)"><line x1="629.0009765625" y1="206.5" x2="1459.0009765625" y2="206.5" fill-opacity="0" stroke-opacity="1" stroke="#C6D6EF" fill="none" stroke-width="21" transform="matrix(0,1,-1,0,846.0009765625,-412.0009765625)"/><line x1="336.0007019042969" y1="336.5" x2="1166.0007019042969" y2="336.5" fill-opacity="0" stroke-opacity="1" stroke="#C6D6EF" fill="none" stroke-width="21" transform="matrix(0.7071068286895752,0.7071070075035095,-0.7071070075035095,0.7071068286895752,343.778442746996,-135.9545203979087)"/><line x1="224.00003051757812" y1="643.5" x2="1054.0000305175781" y2="643.5" fill-opacity="0" stroke-opacity="1" stroke="#C6D6EF" fill="none" stroke-width="21" transform="matrix(1,7.4460420051991605e-9,-7.4460420051991605e-9,1,0.00000486971146074211,-0.0000016679135796948685)"/><line x1="346" y1="937.3988647460938" x2="1176" y2="937.3988647460938" fill-opacity="0" stroke-opacity="1" stroke="#C6D6EF" fill="none" stroke-width="21" transform="matrix(0.7071070671081543,-0.7071070671081543,0.7071070671081543,0.7071070671081543,-568.9250313851808,522.2919237997558)"/><rect x="227.5" y="228.5" width="824" height="824" rx="412" fill-opacity="0" stroke-opacity="1" stroke="#C6D6EF" fill="none" stroke-width="23"/></g><g filter="url(#master_svg2_3_108)"><g clip-path="url(#master_svg3_3_108)"><rect x="382" y="383" width="515" height="515" rx="257.5" fill="#FFFFFF" fill-opacity="1"/><path d="M495.239990234375,681.4076461015625C495.239990234375,717.4267391015625,513.761846234375,751.5571291015625,545.899517234375,774.9673491015625C547.973694234375,776.5639491015625,549.153633234375,778.9743491015624,549.098140234375,781.5014491015625L549.098140234375,820.6754291015625C549.099281234375,824.7042691015624,551.413490234375,828.4155991015625,555.142830234375,830.3690991015625C558.872177234375,832.3228591015625,563.429748234375,832.2116091015625,567.047279234375,830.0781991015625L611.093370234375,804.0645591015625C612.724310234375,803.1664691015625,614.625380234375,802.8071891015625,616.496400234375,803.0436391015625C624.017640234375,804.1971591015625,631.884550234375,804.7691791015625,639.999980234375,804.7691791015625C719.458050234375,804.7691791015625,784.759980234375,749.7398791015626,784.759980234375,681.5811461015625C784.759980234375,662.4684221015625,778.2826202343749,640.2423321015625,761.0437302343751,616.9591784015626Q715.9684002343749,634.8272611015625,673.8399802343749,633.8899571015625C631.711560234375,632.9526541015625,632.391860234375,615.9142365015625,592.529983234375,613.2099575715625Q552.668113234375,610.5056789015625,514.392490234375,623.0728501015625C500.997489934375,644.2636201015625,495.239990234375,664.3680381015625,495.239990234375,681.4076461015625Z" fill="#27C7EB" fill-opacity="1"/><path d="M792.279970234375,681.5811747460938Q792.279970234375,646.5098847460938,767.0874602343749,612.4844357460937Q744.267390234375,581.6634487460938,702.346480234375,554.7142897460938Q695.022350234375,550.0059237460938,686.683430234375,543.5165472460938Q677.102520234375,536.0606589460938,670.150380234375,534.3076639460937Q662.467800234375,532.3704896460938,640.4808702343751,532.3700103460937Q637.8064302343751,532.3699593460938,633.063220234375,532.3575515460938Q611.141500234375,532.3002057460938,604.447170234375,534.1525244460937Q597.462300234375,536.0852332460937,583.065872234375,546.3789105460937Q578.096557234375,549.9320507460938,575.057541234375,552.0593487460937Q530.803005234375,583.0375557460937,508.03595323437503,619.0548327460938Q487.719990734375,651.1944847460937,487.719983134375,681.4076947460937Q487.719985934375,710.3142547460938,501.906193734375,736.4981547460937Q515.947553234375,762.4147047460938,541.348034234375,780.9554447460937Q541.583938234375,781.1603847460938,541.578140234375,781.5014847460938L541.578140234375,820.6776147460937Q541.581276234375,831.7546047460937,551.653038234375,837.0303647460937Q561.401970234375,842.1378147460937,570.871444234375,836.5533147460937L614.776780234375,810.6228047460938Q615.104150234375,810.4624347460938,615.495520234375,810.4980147460938Q627.2498302343749,812.2892147460938,640.000030234375,812.2892147460938Q670.598560234375,812.2892147460938,698.686390234375,802.1817047460938Q725.934880234375,792.3762247460937,747.041780234375,774.4690447460937Q768.3191802343749,756.4172047460937,780.042630234375,732.9437847460938Q792.279970234375,708.4414347460938,792.279970234375,681.5811747460938ZM758.300690234375,626.0713497460938Q777.239990234375,653.7957347460938,777.239990234375,681.5811747460938Q777.239990234375,704.8945947460937,766.587430234375,726.2237847460938Q756.240360234375,746.9413647460938,737.311770234375,763.0004447460938Q718.280730234375,779.1464547460937,693.5938902343751,788.0301047460937Q667.974790234375,797.2492347460937,640.000030234375,797.2492347460937Q628.320980234375,797.2492347460937,617.636380234375,795.6105847460938L617.537930234375,795.5954847460937L617.439120234375,795.5829947460937Q612.125270234375,794.9115447460938,607.465890234375,797.4773847460938L607.366700234375,797.5320147460938L563.223114234375,823.6032447460938Q560.969574234375,824.9322547460938,558.632622234375,823.7079147460938Q556.618702234375,822.6529847460938,556.618141234375,820.6733447460938L556.618141234375,781.5014847460938Q556.787784234375,773.8586747460938,550.486412234375,769.0083147460938L550.407593234375,768.9476447460937L550.327190234375,768.8890847460938Q527.5857432343751,752.3233947460938,515.130054234375,729.3335747460937Q502.759984034375,706.5017747460938,502.759982134375,681.4076947460937Q502.759989234375,656.5946247460938,519.324205234375,629.3872677460938Q554.966545234375,618.1989367460938,592.020988234375,620.7127377460938Q603.880920234375,621.5173337460938,613.133530234375,624.3908157460937Q618.684620234375,626.1147617460938,627.910720234375,630.4438937460937Q638.9063902343751,635.6033557460937,646.124760234375,637.6575467460938Q658.085620234375,641.0613447460937,673.672730234375,641.4081447460937Q714.730350234375,642.3216147460937,758.300690234375,626.0713497460938ZM748.752810234375,613.5385057460937Q710.169100234375,627.1764147460938,674.007260234375,626.3718567460937Q660.347750234375,626.0679477460938,650.241360234375,623.1918947460938Q644.193500234375,621.4708027460938,634.299550234375,616.8282927460938Q624.135120234375,612.0588687460937,617.594180234375,610.0275187460937Q606.657900234375,606.6311567460938,593.038978234375,605.7072297460937Q562.5547182343751,603.6391527460937,532.971668234375,610.1842577460937Q552.629879234375,586.1173897460937,583.682419234375,564.3805927460937Q586.783317234375,562.2099777460937,591.813614234375,558.6132337460938Q604.041950234375,549.8697807460937,608.458020234375,548.6478557460938Q613.164600234375,547.3455481460937,633.023880234375,547.3974990460938Q637.777190234375,547.4099330460938,640.469990234375,547.4099588460938Q660.598920234375,547.4100093460937,666.473100234375,548.8911924460938Q670.360260234375,549.8713477460938,677.4466102343749,555.3859607460937Q686.319790234375,562.2910997460938,694.2134902343751,567.3656117460938Q728.311000234375,589.2854457460937,748.752810234375,613.5385057460937Z" fill-rule="evenodd" fill="#4D75BD" fill-opacity="1"/><g clip-path="url(#master_svg4_3_10)"><rect x="587" y="462" width="106" height="93" rx="0" fill="#FFFFFF" fill-opacity="1"/><rect x="587" y="462" width="106" height="93" rx="0" fill-opacity="0" stroke-opacity="1" stroke="#4D75BD" fill="none" stroke-width="13"/></g><g clip-path="url(#master_svg5_3_7)"><rect x="574" y="444" width="133" height="37" rx="18.5" fill="#FFFFFF" fill-opacity="1"/><rect x="574" y="444" width="133" height="37" rx="18.5" fill-opacity="0" stroke-opacity="1" stroke="#4D75BD" fill="none" stroke-width="13"/></g><path d="M557.280029296875,686.0020886484375C557.280029296875,695.3414286484375,564.814388296875,702.8757856484375,574.153740296875,702.8757856484375C583.481426296875,702.8757856484375,591.015800296875,695.3414286484375,591.015800296875,686.0020886484375C591.015800296875,676.6743884484375,583.481439296875,669.1400146484375,574.153740296875,669.1400146484375C564.814388296875,669.1400146484375,557.280029296875,676.6743707484375,557.280029296875,686.0020886484375ZM622.643776296875,686.0020886484375C622.643776296875,695.3414286484375,630.1781992968749,702.8757856484375,639.505882296875,702.8757856484375C648.845245296875,702.8757856484375,656.379577296875,695.3414286484375,656.379577296875,686.0020886484375C656.379577296875,676.6743884484375,648.845245296875,669.1400146484375,639.505882296875,669.1400146484375C630.1781992968749,669.1400146484375,622.643776296875,676.6743707484375,622.643776296875,686.0020886484375ZM688.007519296875,686.0020886484375C688.007519296875,695.3414286484375,695.541989296875,702.8757856484375,704.869639296875,702.8757856484375C714.208989296875,702.8757856484375,721.743319296875,695.3414286484375,721.743319296875,686.0020886484375C721.743319296875,676.6743884484375,714.208989296875,669.1400146484375,704.869639296875,669.1400146484375C695.541989296875,669.1400146484375,688.007519296875,676.6743707484375,688.007519296875,686.0020886484375Z" fill="#FFFFFF" fill-opacity="1" style="mix-blend-mode:passthrough"/></g></g><g transform="matrix(0.7071069478988647,0.7071070075035095,-0.7071070075035095,0.7071069478988647,398.17799220155575,-599.2872203517327)"><path d="M1405.942231640625,454.844795Q1406.316071640625,455.071121,1406.679641640625,455.31356Q1407.043211640625,455.556,1407.395841640625,455.814095Q1407.748471640625,456.072189,1408.089511640625,456.34542799999997Q1408.430511640625,456.618668,1408.759281640625,456.90654Q1409.088041640625,457.19442,1409.403931640625,457.49638400000003Q1409.719821640625,457.798355,1410.022221640625,458.113831Q1410.3246116406249,458.429306,1410.612941640625,458.757675Q1410.901241640625,459.08606,1411.174941640625,459.426712Q1411.448651640625,459.767372,1411.707211640625,460.119659Q1411.965791640625,460.471954,1412.208711640625,460.835197Q1412.451631640625,461.198441,1412.678451640625,461.571953Q1412.905271640625,461.945465,1413.115551640625,462.328522Q1413.3258716406249,462.711586,1413.519241640625,463.10347Q1413.712611640625,463.495354,1413.888691640625,463.895309Q1414.064731640625,464.295265,1414.223161640625,464.702522Q1414.381571640625,465.109787,1414.522061640625,465.523567Q1414.662571640625,465.937363,1414.784831640625,466.356903Q1414.907131640625,466.776443,1415.010971640625,467.200912Q1415.114811640625,467.625381,1415.200011640625,468.053986Q1415.285201640625,468.48259,1415.351591640625,468.914505Q1415.4180016406249,469.346428,1415.465481640625,469.780838Q1415.512951640625,470.21524,1415.541411640625,470.651306Q1415.569851640625,471.087372,1415.579221640625,471.524261Q1415.588611640625,471.961151,1415.578891640625,472.398033Q1415.569181640625,472.834923,1415.5403916406249,473.270966Q1415.511611640625,473.707008,1415.463801640625,474.141373Q1415.415981640625,474.575745,1415.349241640625,475.007614Q1415.282501640625,475.43946800000003,1415.196971640625,475.868004Q1415.111451640625,476.296539,1415.007291640625,476.72094Q1414.903121640625,477.145332,1414.780521640625,477.564774Q1414.657901640625,477.98420699999997,1414.517071640625,478.397896Q1414.376261640625,478.811577,1414.217511640625,479.218712L1379.518641640625,568.21213Q1379.3825216406249,568.56128,1379.233411640625,568.90508Q1379.084301640625,569.24887,1378.922421640625,569.5868399999999Q1378.760531640625,569.9248,1378.586101640625,570.25647Q1378.411651640625,570.58812,1378.2249116406251,570.91301Q1378.038181640625,571.23792,1377.839401640625,571.5555899999999Q1377.6406216406249,571.87326,1377.430101640625,572.18326Q1377.219571640625,572.4932699999999,1376.997571640625,572.79517Q1376.775561640625,573.09708,1376.542391640625,573.39044Q1376.309231640625,573.68382,1376.065261640625,573.96826Q1375.821291640625,574.25272,1375.566821640625,574.5278000000001Q1375.312351640625,574.8029,1375.047761640625,575.06827Q1374.783171640625,575.33362,1374.508821640625,575.58888Q1374.234481640625,575.84415,1373.950771640625,576.08896Q1373.667051640625,576.3338,1373.374361640625,576.56781Q1373.081661640625,576.80182,1372.780391640625,577.0246999999999Q1372.479141640625,577.24756,1372.169741640625,577.4590000000001Q1371.860351640625,577.67044,1371.543261640625,577.87015Q1371.226161640625,578.06985,1370.901821640625,578.2575400000001Q1370.577481640625,578.4452200000001,1370.246311640625,578.62064Q1369.915161640625,578.79605,1369.5776716406249,578.9589100000001Q1369.240171640625,579.1218,1368.896821640625,579.2719099999999Q1368.553471640625,579.42203,1368.204731640625,579.55917Q1367.855991640625,579.69632,1367.502351640625,579.8203100000001Q1367.148711640625,579.94431,1366.790681640625,580.0549599999999Q1366.432651640625,580.16562,1366.0707416406249,580.26279Q1365.708831640625,580.35995,1365.343521640625,580.4435Q1364.978211640625,580.5270399999999,1364.610011640625,580.59683Q1364.241831640625,580.66661,1363.871291640625,580.7225599999999Q1363.5007616406251,580.77853,1363.128401640625,580.82057Q1362.756031640625,580.86261,1362.3823416406249,580.89066Q1362.008651640625,580.9187,1361.634171640625,580.93274Q1361.259691640625,580.94678,1360.8849516406249,580.94678L1240.099899640625,580.94678Q1239.725166640625,580.94678,1239.350692640625,580.9327499999999Q1238.976219640625,580.91872,1238.602531640625,580.89067Q1238.228843640625,580.86261,1237.856471640625,580.82057Q1237.484096640625,580.77853,1237.113555640625,580.72258Q1236.743018640625,580.6666299999999,1236.374839640625,580.59683Q1236.006660640625,580.5270399999999,1235.641349640625,580.4435100000001Q1235.276042640625,580.35997,1234.914115640625,580.2628Q1234.552192640625,580.16562,1234.194160640625,580.0549599999999Q1233.836131640625,579.94431,1233.482501640625,579.8203100000001Q1233.128867640625,579.69632,1232.780132640625,579.55917Q1232.431396640625,579.42203,1232.088039640625,579.2719099999999Q1231.744682640625,579.1218,1231.407184640625,578.9589100000001Q1231.069694640625,578.79605,1230.738540640625,578.62064Q1230.407386640625,578.4452200000001,1230.083038640625,578.2575400000001Q1229.758689640625,578.06985,1229.441593640625,577.8701599999999Q1229.124500640625,577.67044,1228.815109640625,577.4590000000001Q1228.505721640625,577.24756,1228.204475640625,577.02469Q1227.903228640625,576.80182,1227.610534640625,576.56781Q1227.317844640625,576.3338,1227.034126640625,576.08897Q1226.750404640625,575.84415,1226.476058640625,575.58888Q1226.201713640625,575.33362,1225.937122640625,575.06825Q1225.672530640625,574.8029,1225.418063640625,574.5278000000001Q1225.163596640625,574.25272,1224.919612640625,573.96826Q1224.675628640625,573.68382,1224.442470640625,573.39044Q1224.209319640625,573.09708,1223.987315640625,572.79518Q1223.765315640625,572.49329,1223.554778640625,572.18327Q1223.3442416406251,571.87328,1223.145461640625,571.5556Q1222.946685640625,571.23792,1222.759948640625,570.91301Q1222.573211640625,570.58812,1222.398780640625,570.25647Q1222.224349640625,569.9248,1222.062461640625,569.5868399999999Q1221.900573640625,569.24887,1221.751457640625,568.90508Q1221.602340640625,568.56128,1221.466205640625,568.21213L1186.767349640625,479.21871899999996Q1186.608604640625,478.811584,1186.467794640625,478.397903Q1186.326984640625,477.984222,1186.204377640625,477.564789Q1186.081771640625,477.145348,1185.977601640625,476.720955Q1185.873432640625,476.296555,1185.787897640625,475.868011Q1185.702365640625,475.439476,1185.635631640625,475.007607Q1185.568898640625,474.575745,1185.521091640625,474.141373Q1185.473284640625,473.707016,1185.444496640625,473.270966Q1185.415707640625,472.83493,1185.405991640625,472.39804100000003Q1185.396276640625,471.961166,1185.405650640625,471.524269Q1185.415027640625,471.087379,1185.443477640625,470.651314Q1185.471926640625,470.21524,1185.519395640625,469.780838Q1185.566863640625,469.346436,1185.633261640625,468.914513Q1185.699659640625,468.482597,1185.784859640625,468.053993Q1185.870059640625,467.625389,1185.973898640625,467.200912Q1186.077737640625,466.776443,1186.200018640625,466.356903Q1186.322299640625,465.93737799999997,1186.462787640625,465.523575Q1186.603277640625,465.109787,1186.761704640625,464.70253Q1186.920133640625,464.295265,1187.096197640625,463.895309Q1187.272263640625,463.495361,1187.465629640625,463.103477Q1187.658996640625,462.711594,1187.869294640625,462.328529Q1188.079593640625,461.945465,1188.306424640625,461.57196Q1188.533253640625,461.198448,1188.776180640625,460.835205Q1189.019107640625,460.471954,1189.277669640625,460.119667Q1189.536230640625,459.76738,1189.809932640625,459.42672Q1190.083635640625,459.086067,1190.371955640625,458.75769Q1190.660278640625,458.429314,1190.962665640625,458.113838Q1191.265052640625,457.79837,1191.580932640625,457.496399Q1191.896810640625,457.194427,1192.225576640625,456.906548Q1192.554344640625,456.618668,1192.895372640625,456.34542799999997Q1193.236400640625,456.072189,1193.589034640625,455.814102Q1193.941669640625,455.556015,1194.305242640625,455.313576Q1194.668815640625,455.071136,1195.042629640625,454.844803L1290.134011640625,397.2715263Q1290.716381640625,396.9189329,1291.321361640625,396.6067562Q1291.926361640625,396.29458,1292.551181640625,396.0242653Q1293.176001640625,395.7539506,1293.817761640625,395.5267491Q1294.459521640625,395.2995477,1295.115231640625,395.1165113Q1295.770961640625,394.9334753,1296.437611640625,394.7954514Q1297.104251640625,394.6574278,1297.778731640625,394.5650554Q1298.453231640625,394.472683,1299.132441640625,394.4263897Q1299.811641640625,394.3800964,1300.492431640625,394.3800962Q1301.173221640625,394.3800964,1301.852431640625,394.4263897Q1302.5316516406251,394.472683,1303.206131640625,394.5650551Q1303.880611640625,394.6574278,1304.547271640625,394.7954516Q1305.213911640625,394.9334753,1305.869631640625,395.1165113Q1306.525341640625,395.2995477,1307.1671016406249,395.5267491Q1307.808871640625,395.7539506,1308.433681640625,396.0242653Q1309.058501640625,396.29458,1309.6635016406249,396.6067567Q1310.268491640625,396.9189329,1310.850841640625,397.2715263L1405.942231640625,454.844795Z" fill="#EC91B4" fill-opacity="0.30000001192092896" transform="matrix(-1,0,0,-1,2348.98486328125,782)"/><g clip-path="url(#master_svg6_3_179/3_143)"><rect x="981.4923706054688" y="219" width="134" height="134" rx="67" fill="#EC91B4" fill-opacity="1"/></g></g><g transform="matrix(-0.70710688829422,-0.7071070671081543,0.7071070671081543,-0.70710688829422,-197.09414761473818,2137.7279636321036)"><path d="M827.6407790039062,1383.528144609375Q828.0146190039063,1383.754470609375,828.3781890039063,1383.996909609375Q828.7417590039063,1384.239349609375,829.0943890039063,1384.497444609375Q829.4470190039062,1384.755538609375,829.7880590039063,1385.028777609375Q830.1290590039063,1385.302017609375,830.4578290039062,1385.589889609375Q830.7865890039062,1385.877769609375,831.1024790039062,1386.179733609375Q831.4183690039063,1386.481704609375,831.7207690039063,1386.7971806093751Q832.0231590039062,1387.112655609375,832.3114890039062,1387.441024609375Q832.5997890039063,1387.769409609375,832.8734890039062,1388.110061609375Q833.1471990039063,1388.450721609375,833.4057590039063,1388.803008609375Q833.6643390039062,1389.155303609375,833.9072590039062,1389.5185466093749Q834.1501790039063,1389.881790609375,834.3769990039062,1390.255302609375Q834.6038190039062,1390.628814609375,834.8140990039062,1391.011871609375Q835.0244190039062,1391.394935609375,835.2177890039063,1391.786819609375Q835.4111590039063,1392.178703609375,835.5872390039062,1392.578658609375Q835.7632790039063,1392.978614609375,835.9217090039062,1393.385871609375Q836.0801190039062,1393.793136609375,836.2206090039062,1394.206916609375Q836.3611190039062,1394.620712609375,836.4833790039063,1395.040252609375Q836.6056790039063,1395.459792609375,836.7095190039063,1395.884261609375Q836.8133590039063,1396.308730609375,836.8985590039063,1396.737335609375Q836.9837490039063,1397.165939609375,837.0501390039062,1397.597854609375Q837.1165490039062,1398.029777609375,837.1640290039063,1398.464187609375Q837.2114990039063,1398.898589609375,837.2399590039063,1399.334655609375Q837.2683990039062,1399.770721609375,837.2777690039063,1400.207610609375Q837.2871590039063,1400.644500609375,837.2774390039062,1401.081382609375Q837.2677290039062,1401.518272609375,837.2389390039062,1401.954315609375Q837.2101590039063,1402.390357609375,837.1623490039062,1402.824722609375Q837.1145290039062,1403.259094609375,837.0477890039062,1403.690963609375Q836.9810490039063,1404.122817609375,836.8955190039062,1404.551353609375Q836.8099990039062,1404.979888609375,836.7058390039062,1405.404289609375Q836.6016690039062,1405.828681609375,836.4790690039063,1406.248123609375Q836.3564490039063,1406.667556609375,836.2156190039062,1407.081245609375Q836.0748090039062,1407.494926609375,835.9160590039062,1407.902061609375L801.2171890039062,1496.895479609375Q801.0810690039062,1497.244629609375,800.9319590039063,1497.588429609375Q800.7828490039062,1497.932219609375,800.6209690039062,1498.270189609375Q800.4590790039063,1498.608149609375,800.2846490039062,1498.939819609375Q800.1101990039062,1499.271469609375,799.9234590039063,1499.596359609375Q799.7367290039062,1499.921269609375,799.5379490039063,1500.238939609375Q799.3391690039062,1500.556609609375,799.1286490039063,1500.866609609375Q798.9181190039062,1501.176619609375,798.6961190039062,1501.478519609375Q798.4741090039063,1501.780429609375,798.2409390039063,1502.0737896093751Q798.0077790039063,1502.367169609375,797.7638090039063,1502.651609609375Q797.5198390039062,1502.936069609375,797.2653690039062,1503.211149609375Q797.0108990039063,1503.486249609375,796.7463090039063,1503.751619609375Q796.4817190039063,1504.0169696093749,796.2073690039063,1504.272229609375Q795.9330290039063,1504.527499609375,795.6493190039063,1504.772309609375Q795.3655990039063,1505.0171496093749,795.0729090039063,1505.251159609375Q794.7802090039063,1505.485169609375,794.4789390039062,1505.708049609375Q794.1776890039063,1505.930909609375,793.8682890039063,1506.142349609375Q793.5588990039063,1506.353789609375,793.2418090039063,1506.553499609375Q792.9247090039063,1506.753199609375,792.6003690039063,1506.940889609375Q792.2760290039063,1507.128569609375,791.9448590039062,1507.303989609375Q791.6137090039063,1507.479399609375,791.2762190039062,1507.642259609375Q790.9387190039063,1507.805149609375,790.5953690039063,1507.955259609375Q790.2520190039063,1508.105379609375,789.9032790039063,1508.242519609375Q789.5545390039063,1508.379669609375,789.2008990039062,1508.503659609375Q788.8472590039063,1508.627659609375,788.4892290039063,1508.738309609375Q788.1311990039062,1508.848969609375,787.7692890039062,1508.946139609375Q787.4073790039063,1509.043299609375,787.0420690039062,1509.126849609375Q786.6767590039062,1509.210389609375,786.3085590039062,1509.280179609375Q785.9403790039063,1509.349959609375,785.5698390039063,1509.405909609375Q785.1993090039063,1509.461879609375,784.8269490039063,1509.503919609375Q784.4545790039062,1509.545959609375,784.0808890039062,1509.574009609375Q783.7071990039062,1509.602049609375,783.3327190039063,1509.616089609375Q782.9582390039062,1509.630129609375,782.5834990039062,1509.630129609375L661.7984470039063,1509.630129609375Q661.4237140039063,1509.630129609375,661.0492400039062,1509.616099609375Q660.6747670039063,1509.6020696093751,660.3010790039062,1509.574019609375Q659.9273910039062,1509.545959609375,659.5550190039063,1509.503919609375Q659.1826440039063,1509.461879609375,658.8121030039063,1509.405929609375Q658.4415660039062,1509.349979609375,658.0733870039062,1509.280179609375Q657.7052080039063,1509.210389609375,657.3398970039062,1509.126859609375Q656.9745900039062,1509.043319609375,656.6126630039063,1508.946149609375Q656.2507400039062,1508.848969609375,655.8927080039063,1508.738309609375Q655.5346790039063,1508.627659609375,655.1810490039063,1508.503659609375Q654.8274150039063,1508.379669609375,654.4786800039062,1508.242519609375Q654.1299440039063,1508.105379609375,653.7865870039062,1507.955259609375Q653.4432300039063,1507.805149609375,653.1057320039063,1507.642259609375Q652.7682420039063,1507.479399609375,652.4370880039063,1507.303989609375Q652.1059340039062,1507.128569609375,651.7815860039062,1506.940889609375Q651.4572370039062,1506.753199609375,651.1401410039063,1506.553509609375Q650.8230480039063,1506.353789609375,650.5136570039062,1506.142349609375Q650.2042690039062,1505.930909609375,649.9030230039062,1505.708039609375Q649.6017760039063,1505.485169609375,649.3090820039063,1505.251159609375Q649.0163920039063,1505.0171496093749,648.7326740039063,1504.772319609375Q648.4489520039062,1504.527499609375,648.1746060039062,1504.272229609375Q647.9002610039063,1504.0169696093749,647.6356700039063,1503.751599609375Q647.3710780039063,1503.486249609375,647.1166110039062,1503.211149609375Q646.8621440039062,1502.936069609375,646.6181600039063,1502.651609609375Q646.3741760039062,1502.367169609375,646.1410180039062,1502.0737896093751Q645.9078670039063,1501.780429609375,645.6858630039062,1501.478529609375Q645.4638630039062,1501.176639609375,645.2533260039063,1500.866619609375Q645.0427890039063,1500.556629609375,644.8440090039062,1500.238949609375Q644.6452330039062,1499.921269609375,644.4584960039062,1499.596359609375Q644.2717590039063,1499.271469609375,644.0973280039062,1498.939819609375Q643.9228970039062,1498.608149609375,643.7610090039062,1498.270189609375Q643.5991210039062,1497.932219609375,643.4500050039062,1497.588429609375Q643.3008880039063,1497.244629609375,643.1647530039063,1496.895479609375L608.4658970039062,1407.902068609375Q608.3071520039063,1407.494933609375,608.1663420039063,1407.081252609375Q608.0255320039063,1406.667571609375,607.9029250039063,1406.248138609375Q607.7803190039062,1405.828697609375,607.6761490039063,1405.404304609375Q607.5719800039062,1404.979904609375,607.4864450039063,1404.551360609375Q607.4009130039062,1404.122825609375,607.3341790039062,1403.690956609375Q607.2674460039062,1403.259094609375,607.2196390039062,1402.824722609375Q607.1718320039063,1402.390365609375,607.1430440039062,1401.954315609375Q607.1142550039062,1401.518279609375,607.1045390039062,1401.081390609375Q607.0948240039063,1400.644515609375,607.1041980039063,1400.207618609375Q607.1135750039062,1399.770728609375,607.1420250039063,1399.334663609375Q607.1704740039063,1398.898589609375,607.2179430039063,1398.464187609375Q607.2654110039063,1398.029785609375,607.3318090039063,1397.597862609375Q607.3982070039062,1397.165946609375,607.4834070039062,1396.737342609375Q607.5686070039062,1396.308738609375,607.6724460039062,1395.884261609375Q607.7762850039062,1395.459792609375,607.8985660039062,1395.040252609375Q608.0208470039063,1394.620727609375,608.1613350039063,1394.206924609375Q608.3018250039063,1393.793136609375,608.4602520039062,1393.385879609375Q608.6186810039062,1392.978614609375,608.7947450039062,1392.578658609375Q608.9708110039063,1392.178710609375,609.1641770039063,1391.786826609375Q609.3575440039062,1391.394943609375,609.5678420039062,1391.011878609375Q609.7781410039063,1390.628814609375,610.0049720039062,1390.255309609375Q610.2318010039063,1389.881797609375,610.4747280039062,1389.518554609375Q610.7176550039062,1389.155303609375,610.9762170039063,1388.803016609375Q611.2347780039063,1388.450729609375,611.5084800039062,1388.110069609375Q611.7821830039062,1387.769416609375,612.0705030039062,1387.441039609375Q612.3588260039063,1387.112663609375,612.6612130039063,1386.797187609375Q612.9636000039062,1386.481719609375,613.2794800039062,1386.179748609375Q613.5953580039062,1385.877776609375,613.9241240039063,1385.589897609375Q614.2528920039063,1385.302017609375,614.5939200039063,1385.028777609375Q614.9349480039062,1384.755538609375,615.2875820039062,1384.497451609375Q615.6402170039063,1384.2393646093751,616.0037900039063,1383.996925609375Q616.3673630039062,1383.754485609375,616.7411770039063,1383.528152609375L711.8325590039062,1325.954875909375Q712.4149290039063,1325.602282509375,713.0199090039063,1325.290105809375Q713.6249090039063,1324.977929609375,714.2497290039063,1324.707614909375Q714.8745490039063,1324.437300209375,715.5163090039063,1324.210098709375Q716.1580690039062,1323.982897309375,716.8137790039062,1323.799860909375Q717.4695090039063,1323.616824909375,718.1361590039062,1323.478801009375Q718.8027990039062,1323.340777409375,719.4772790039062,1323.248405009375Q720.1517790039063,1323.156032609375,720.8309890039062,1323.109739309375Q721.5101890039062,1323.063446009375,722.1909790039062,1323.063445809375Q722.8717690039063,1323.063446009375,723.5509790039063,1323.109739309375Q724.2301990039063,1323.156032609375,724.9046790039063,1323.248404709375Q725.5791590039063,1323.340777409375,726.2458190039063,1323.478801209375Q726.9124590039063,1323.616824909375,727.5681790039063,1323.799860909375Q728.2238890039063,1323.982897309375,728.8656490039062,1324.210098709375Q729.5074190039063,1324.437300209375,730.1322290039062,1324.707614909375Q730.7570490039062,1324.977929609375,731.3620490039062,1325.290106309375Q731.9670390039063,1325.602282509375,732.5493890039063,1325.954875909375L827.6407790039062,1383.528144609375Z" fill="#6CD4EF" fill-opacity="0.30000001192092896" transform="matrix(-1,0,0,-1,1192.3819580078125,2639.36669921875)"/><g clip-path="url(#master_svg7_3_180/3_143)"><rect x="403.19091796875" y="1147.683349609375" width="134" height="134" rx="67" fill="#6CD4EF" fill-opacity="1"/></g></g><g transform="matrix(-1,-4.214684778958144e-8,4.214684778958144e-8,-1,1531.999950435307,2352.0000322844853)"><path d="M1249.4498,1449.844795Q1249.82364,1450.071121,1250.18721,1450.31356Q1250.55078,1450.556,1250.90341,1450.814095Q1251.25604,1451.072189,1251.59708,1451.345428Q1251.93808,1451.618668,1252.26685,1451.90654Q1252.59561,1452.19442,1252.9115,1452.496384Q1253.22739,1452.798355,1253.52979,1453.1138310000001Q1253.8321799999999,1453.429306,1254.12051,1453.757675Q1254.40881,1454.08606,1254.68251,1454.426712Q1254.95622,1454.767372,1255.21478,1455.119659Q1255.47336,1455.471954,1255.71628,1455.8351969999999Q1255.9592,1456.198441,1256.18602,1456.571953Q1256.41284,1456.945465,1256.62312,1457.328522Q1256.8334399999999,1457.711586,1257.02681,1458.10347Q1257.22018,1458.495354,1257.39626,1458.895309Q1257.5723,1459.295265,1257.73073,1459.702522Q1257.88914,1460.109787,1258.02963,1460.523567Q1258.17014,1460.937363,1258.2924,1461.356903Q1258.4147,1461.776443,1258.51854,1462.200912Q1258.62238,1462.625381,1258.70758,1463.053986Q1258.79277,1463.48259,1258.85916,1463.914505Q1258.9255699999999,1464.346428,1258.97305,1464.780838Q1259.02052,1465.21524,1259.04898,1465.651306Q1259.07742,1466.087372,1259.08679,1466.524261Q1259.09618,1466.961151,1259.08646,1467.398033Q1259.07675,1467.834923,1259.0479599999999,1468.270966Q1259.01918,1468.707008,1258.97137,1469.141373Q1258.92355,1469.575745,1258.85681,1470.007614Q1258.79007,1470.439468,1258.70454,1470.868004Q1258.61902,1471.296539,1258.51486,1471.72094Q1258.41069,1472.145332,1258.28809,1472.564774Q1258.16547,1472.984207,1258.02464,1473.397896Q1257.88383,1473.811577,1257.72508,1474.218712L1223.02621,1563.21213Q1222.8900899999999,1563.56128,1222.74098,1563.90508Q1222.59187,1564.24887,1222.42999,1564.58684Q1222.2681,1564.9248,1222.09367,1565.25647Q1221.91922,1565.58812,1221.7324800000001,1565.91301Q1221.54575,1566.23792,1221.34697,1566.55559Q1221.1481899999999,1566.87326,1220.93767,1567.18326Q1220.72714,1567.49327,1220.50514,1567.79517Q1220.28313,1568.09708,1220.04996,1568.3904400000001Q1219.8168,1568.68382,1219.57283,1568.96826Q1219.32886,1569.25272,1219.07439,1569.5278Q1218.81992,1569.8029,1218.55533,1570.06827Q1218.29074,1570.3336199999999,1218.01639,1570.58888Q1217.74205,1570.84415,1217.45834,1571.08896Q1217.17462,1571.3337999999999,1216.88193,1571.56781Q1216.58923,1571.80182,1216.28796,1572.0247Q1215.98671,1572.24756,1215.67731,1572.459Q1215.36792,1572.67044,1215.05083,1572.87015Q1214.73373,1573.06985,1214.40939,1573.25754Q1214.08505,1573.44522,1213.75388,1573.62064Q1213.42273,1573.79605,1213.0852399999999,1573.95891Q1212.74774,1574.1218,1212.40439,1574.27191Q1212.06104,1574.42203,1211.7123,1574.55917Q1211.36356,1574.69632,1211.00992,1574.82031Q1210.65628,1574.94431,1210.29825,1575.05496Q1209.94022,1575.16562,1209.5783099999999,1575.26279Q1209.2164,1575.35995,1208.85109,1575.4435Q1208.48578,1575.52704,1208.11758,1575.59683Q1207.7494,1575.66661,1207.37886,1575.72256Q1207.0083300000001,1575.77853,1206.63597,1575.82057Q1206.2636,1575.86261,1205.8899099999999,1575.89066Q1205.51622,1575.9187,1205.14174,1575.93274Q1204.76726,1575.94678,1204.3925199999999,1575.94678L1083.607468,1575.94678Q1083.232735,1575.94678,1082.858261,1575.93275Q1082.483788,1575.9187200000001,1082.1101,1575.89067Q1081.736412,1575.86261,1081.36404,1575.82057Q1080.991665,1575.77853,1080.621124,1575.72258Q1080.250587,1575.66663,1079.882408,1575.59683Q1079.514229,1575.52704,1079.148918,1575.44351Q1078.783611,1575.35997,1078.421684,1575.2628Q1078.059761,1575.16562,1077.701729,1575.05496Q1077.3437,1574.94431,1076.99007,1574.82031Q1076.636436,1574.69632,1076.287701,1574.55917Q1075.938965,1574.42203,1075.595608,1574.27191Q1075.252251,1574.1218,1074.914753,1573.95891Q1074.577263,1573.79605,1074.246109,1573.62064Q1073.914955,1573.44522,1073.590607,1573.25754Q1073.266258,1573.06985,1072.949162,1572.87016Q1072.632069,1572.67044,1072.322678,1572.459Q1072.01329,1572.24756,1071.712044,1572.02469Q1071.410797,1571.80182,1071.118103,1571.56781Q1070.825413,1571.3337999999999,1070.541695,1571.08897Q1070.257973,1570.84415,1069.983627,1570.58888Q1069.709282,1570.3336199999999,1069.444691,1570.06825Q1069.180099,1569.8029,1068.925632,1569.5278Q1068.671165,1569.25272,1068.427181,1568.96826Q1068.183197,1568.68382,1067.950039,1568.3904400000001Q1067.716888,1568.09708,1067.494884,1567.79518Q1067.272884,1567.49329,1067.062347,1567.18327Q1066.8518100000001,1566.87328,1066.65303,1566.5556Q1066.454254,1566.23792,1066.267517,1565.91301Q1066.08078,1565.58812,1065.906349,1565.25647Q1065.731918,1564.9248,1065.57003,1564.58684Q1065.408142,1564.24887,1065.259026,1563.90508Q1065.109909,1563.56128,1064.973774,1563.21213L1030.274918,1474.218719Q1030.116173,1473.811584,1029.975363,1473.397903Q1029.834553,1472.984222,1029.711946,1472.564789Q1029.58934,1472.145348,1029.48517,1471.720955Q1029.381001,1471.296555,1029.295466,1470.868011Q1029.209934,1470.439476,1029.1432,1470.007607Q1029.076467,1469.575745,1029.02866,1469.141373Q1028.980853,1468.707016,1028.952065,1468.270966Q1028.923276,1467.83493,1028.91356,1467.398041Q1028.903845,1466.961166,1028.913219,1466.524269Q1028.922596,1466.087379,1028.951046,1465.651314Q1028.979495,1465.21524,1029.026964,1464.780838Q1029.074432,1464.346436,1029.14083,1463.914513Q1029.207228,1463.482597,1029.292428,1463.053993Q1029.377628,1462.625389,1029.481467,1462.200912Q1029.585306,1461.776443,1029.707587,1461.356903Q1029.829868,1460.937378,1029.970356,1460.523575Q1030.110846,1460.109787,1030.269273,1459.70253Q1030.427702,1459.295265,1030.603766,1458.895309Q1030.779832,1458.495361,1030.973198,1458.103477Q1031.166565,1457.711594,1031.376863,1457.328529Q1031.587162,1456.945465,1031.813993,1456.57196Q1032.040822,1456.198448,1032.283749,1455.835205Q1032.526676,1455.471954,1032.785238,1455.119667Q1033.043799,1454.76738,1033.317501,1454.42672Q1033.591204,1454.086067,1033.879524,1453.75769Q1034.167847,1453.429314,1034.470234,1453.113838Q1034.772621,1452.79837,1035.088501,1452.496399Q1035.404379,1452.194427,1035.733145,1451.906548Q1036.061913,1451.618668,1036.402941,1451.345428Q1036.743969,1451.072189,1037.096603,1450.814102Q1037.449238,1450.5560150000001,1037.812811,1450.313576Q1038.176384,1450.071136,1038.550198,1449.844803L1133.64158,1392.2715263Q1134.22395,1391.9189329,1134.82893,1391.6067562Q1135.43393,1391.29458,1136.05875,1391.0242653Q1136.68357,1390.7539506,1137.32533,1390.5267491Q1137.96709,1390.2995477,1138.6228,1390.1165113Q1139.27853,1389.9334753,1139.94518,1389.7954514Q1140.61182,1389.6574278,1141.2863,1389.5650554Q1141.9608,1389.472683,1142.64001,1389.4263897Q1143.31921,1389.3800964,1144,1389.3800962Q1144.68079,1389.3800964,1145.36,1389.4263897Q1146.0392200000001,1389.472683,1146.7137,1389.5650551Q1147.38818,1389.6574278,1148.05484,1389.7954516Q1148.72148,1389.9334753,1149.3772,1390.1165113Q1150.03291,1390.2995477,1150.6746699999999,1390.5267491Q1151.31644,1390.7539506,1151.94125,1391.0242653Q1152.56607,1391.29458,1153.1710699999999,1391.6067567Q1153.77606,1391.9189329,1154.35841,1392.2715263L1249.4498,1449.844795Z" fill="#F48233" fill-opacity="0.30000001192092896" transform="matrix(-1,0,0,-1,2036,2772)"/><g clip-path="url(#master_svg8_3_181/3_143)"><rect x="824.9999389648438" y="1214" width="134" height="134" rx="67" fill="#F48233" fill-opacity="1"/></g></g><g transform="matrix(-0.7071069478988647,0.7071070075035095,-0.7071070075035095,-0.7071069478988647,2548.7705482774763,795.2496013459968)"><path d="M1593.1332716796876,1199.337226640625Q1593.5071116796876,1199.563552640625,1593.8706816796876,1199.805991640625Q1594.2342516796875,1200.048431640625,1594.5868816796874,1200.306526640625Q1594.9395116796875,1200.564620640625,1595.2805516796875,1200.837859640625Q1595.6215516796874,1201.111099640625,1595.9503216796875,1201.398971640625Q1596.2790816796876,1201.686851640625,1596.5949716796874,1201.988815640625Q1596.9108616796875,1202.290786640625,1597.2132616796875,1202.6062626406251Q1597.5156516796874,1202.921737640625,1597.8039816796875,1203.250106640625Q1598.0922816796874,1203.578491640625,1598.3659816796876,1203.919143640625Q1598.6396916796875,1204.259803640625,1598.8982516796875,1204.612090640625Q1599.1568316796875,1204.964385640625,1599.3997516796876,1205.3276286406249Q1599.6426716796875,1205.690872640625,1599.8694916796876,1206.064384640625Q1600.0963116796875,1206.437896640625,1600.3065916796875,1206.820953640625Q1600.5169116796874,1207.204017640625,1600.7102816796876,1207.595901640625Q1600.9036516796875,1207.987785640625,1601.0797316796875,1208.387740640625Q1601.2557716796875,1208.787696640625,1601.4142016796875,1209.194953640625Q1601.5726116796875,1209.602218640625,1601.7131016796875,1210.015998640625Q1601.8536116796874,1210.429794640625,1601.9758716796875,1210.849334640625Q1602.0981716796875,1211.268874640625,1602.2020116796875,1211.693343640625Q1602.3058516796875,1212.117812640625,1602.3910516796875,1212.546417640625Q1602.4762416796875,1212.975021640625,1602.5426316796875,1213.406936640625Q1602.6090416796874,1213.838859640625,1602.6565216796876,1214.273269640625Q1602.7039916796875,1214.707671640625,1602.7324516796875,1215.143737640625Q1602.7608916796876,1215.579803640625,1602.7702616796876,1216.016692640625Q1602.7796516796875,1216.453582640625,1602.7699316796875,1216.890464640625Q1602.7602216796874,1217.327354640625,1602.7314316796874,1217.763397640625Q1602.7026516796875,1218.199439640625,1602.6548416796875,1218.633804640625Q1602.6070216796875,1219.068176640625,1602.5402816796875,1219.500045640625Q1602.4735416796875,1219.931899640625,1602.3880116796875,1220.360435640625Q1602.3024916796876,1220.788970640625,1602.1983316796875,1221.213371640625Q1602.0941616796874,1221.637763640625,1601.9715616796875,1222.057205640625Q1601.8489416796874,1222.476638640625,1601.7081116796876,1222.890327640625Q1601.5673016796875,1223.304008640625,1601.4085516796874,1223.711143640625L1566.7096816796875,1312.704561640625Q1566.5735616796874,1313.053711640625,1566.4244516796875,1313.397511640625Q1566.2753416796875,1313.741301640625,1566.1134616796876,1314.079271640625Q1565.9515716796875,1314.417231640625,1565.7771416796875,1314.748901640625Q1565.6026916796875,1315.080551640625,1565.4159516796876,1315.405441640625Q1565.2292216796875,1315.730351640625,1565.0304416796876,1316.048021640625Q1564.8316616796874,1316.365691640625,1564.6211416796875,1316.675691640625Q1564.4106116796875,1316.985701640625,1564.1886116796875,1317.287601640625Q1563.9666016796875,1317.589511640625,1563.7334316796876,1317.8828716406251Q1563.5002716796876,1318.176251640625,1563.2563016796876,1318.460691640625Q1563.0123316796876,1318.745151640625,1562.7578616796875,1319.020231640625Q1562.5033916796874,1319.295331640625,1562.2388016796874,1319.560701640625Q1561.9742116796874,1319.8260516406249,1561.6998616796875,1320.081311640625Q1561.4255216796876,1320.336581640625,1561.1418116796874,1320.581391640625Q1560.8580916796875,1320.8262316406249,1560.5654016796875,1321.060241640625Q1560.2727016796875,1321.294251640625,1559.9714316796876,1321.517131640625Q1559.6701816796874,1321.739991640625,1559.3607816796875,1321.951431640625Q1559.0513916796874,1322.162871640625,1558.7343016796874,1322.362581640625Q1558.4172016796874,1322.562281640625,1558.0928616796875,1322.749971640625Q1557.7685216796874,1322.937651640625,1557.4373516796875,1323.113071640625Q1557.1062016796875,1323.288481640625,1556.7687116796874,1323.451341640625Q1556.4312116796875,1323.614231640625,1556.0878616796874,1323.764341640625Q1555.7445116796875,1323.914461640625,1555.3957716796874,1324.051601640625Q1555.0470316796875,1324.188751640625,1554.6933916796875,1324.312741640625Q1554.3397516796874,1324.436741640625,1553.9817216796876,1324.547391640625Q1553.6236916796875,1324.658051640625,1553.2617816796874,1324.755221640625Q1552.8998716796875,1324.852381640625,1552.5345616796876,1324.935931640625Q1552.1692516796875,1325.019471640625,1551.8010516796876,1325.089261640625Q1551.4328716796874,1325.159041640625,1551.0623316796875,1325.214991640625Q1550.6918016796876,1325.270961640625,1550.3194416796875,1325.313001640625Q1549.9470716796875,1325.355041640625,1549.5733816796874,1325.383091640625Q1549.1996916796875,1325.411131640625,1548.8252116796875,1325.425171640625Q1548.4507316796876,1325.439211640625,1548.0759916796874,1325.439211640625L1427.2909396796874,1325.439211640625Q1426.9162066796875,1325.439211640625,1426.5417326796876,1325.425181640625Q1426.1672596796875,1325.4111516406251,1425.7935716796876,1325.383101640625Q1425.4198836796875,1325.355041640625,1425.0475116796874,1325.313001640625Q1424.6751366796875,1325.270961640625,1424.3045956796875,1325.215011640625Q1423.9340586796875,1325.159061640625,1423.5658796796874,1325.089261640625Q1423.1977006796874,1325.019471640625,1422.8323896796876,1324.935941640625Q1422.4670826796876,1324.852401640625,1422.1051556796874,1324.755231640625Q1421.7432326796875,1324.658051640625,1421.3852006796874,1324.547391640625Q1421.0271716796874,1324.436741640625,1420.6735416796876,1324.312741640625Q1420.3199076796875,1324.188751640625,1419.9711726796875,1324.051601640625Q1419.6224366796876,1323.914461640625,1419.2790796796876,1323.764341640625Q1418.9357226796874,1323.614231640625,1418.5982246796875,1323.451341640625Q1418.2607346796874,1323.288481640625,1417.9295806796874,1323.113071640625Q1417.5984266796875,1322.937651640625,1417.2740786796876,1322.749971640625Q1416.9497296796876,1322.562281640625,1416.6326336796874,1322.362591640625Q1416.3155406796875,1322.162871640625,1416.0061496796875,1321.951431640625Q1415.6967616796876,1321.739991640625,1415.3955156796876,1321.517121640625Q1415.0942686796875,1321.294251640625,1414.8015746796875,1321.060241640625Q1414.5088846796875,1320.8262316406249,1414.2251666796874,1320.581401640625Q1413.9414446796875,1320.336581640625,1413.6670986796876,1320.081311640625Q1413.3927536796875,1319.8260516406249,1413.1281626796874,1319.560681640625Q1412.8635706796874,1319.295331640625,1412.6091036796875,1319.020231640625Q1412.3546366796875,1318.745151640625,1412.1106526796875,1318.460691640625Q1411.8666686796876,1318.176251640625,1411.6335106796876,1317.8828716406251Q1411.4003596796874,1317.589511640625,1411.1783556796875,1317.287611640625Q1410.9563556796875,1316.985721640625,1410.7458186796875,1316.675701640625Q1410.5352816796876,1316.365711640625,1410.3365016796874,1316.048031640625Q1410.1377256796875,1315.730351640625,1409.9509886796875,1315.405441640625Q1409.7642516796875,1315.080551640625,1409.5898206796876,1314.748901640625Q1409.4153896796875,1314.417231640625,1409.2535016796876,1314.079271640625Q1409.0916136796875,1313.741301640625,1408.9424976796874,1313.397511640625Q1408.7933806796875,1313.053711640625,1408.6572456796875,1312.704561640625L1373.9583896796876,1223.711150640625Q1373.7996446796874,1223.304015640625,1373.6588346796875,1222.890334640625Q1373.5180246796874,1222.476653640625,1373.3954176796874,1222.057220640625Q1373.2728116796875,1221.637779640625,1373.1686416796874,1221.213386640625Q1373.0644726796875,1220.788986640625,1372.9789376796875,1220.360442640625Q1372.8934056796875,1219.931907640625,1372.8266716796875,1219.500038640625Q1372.7599386796876,1219.068176640625,1372.7121316796874,1218.633804640625Q1372.6643246796875,1218.199447640625,1372.6355366796874,1217.763397640625Q1372.6067476796875,1217.327361640625,1372.5970316796875,1216.890472640625Q1372.5873166796875,1216.453597640625,1372.5966906796875,1216.016700640625Q1372.6060676796876,1215.579810640625,1372.6345176796874,1215.143745640625Q1372.6629666796875,1214.707671640625,1372.7104356796874,1214.273269640625Q1372.7579036796874,1213.838867640625,1372.8243016796876,1213.406944640625Q1372.8906996796875,1212.975028640625,1372.9758996796875,1212.546424640625Q1373.0610996796875,1212.117820640625,1373.1649386796876,1211.693343640625Q1373.2687776796874,1211.268874640625,1373.3910586796876,1210.849334640625Q1373.5133396796875,1210.429809640625,1373.6538276796875,1210.016006640625Q1373.7943176796875,1209.602218640625,1373.9527446796876,1209.194961640625Q1374.1111736796875,1208.787696640625,1374.2872376796875,1208.387740640625Q1374.4633036796874,1207.987792640625,1374.6566696796874,1207.595908640625Q1374.8500366796875,1207.204025640625,1375.0603346796875,1206.820960640625Q1375.2706336796875,1206.437896640625,1375.4974646796875,1206.064391640625Q1375.7242936796874,1205.690879640625,1375.9672206796874,1205.327636640625Q1376.2101476796875,1204.964385640625,1376.4687096796874,1204.612098640625Q1376.7272706796875,1204.259811640625,1377.0009726796875,1203.919151640625Q1377.2746756796876,1203.578498640625,1377.5629956796874,1203.250121640625Q1377.8513186796874,1202.921745640625,1378.1537056796874,1202.606269640625Q1378.4560926796876,1202.290801640625,1378.7719726796875,1201.988830640625Q1379.0878506796876,1201.686858640625,1379.4166166796874,1201.398979640625Q1379.7453846796875,1201.111099640625,1380.0864126796876,1200.837859640625Q1380.4274406796876,1200.564620640625,1380.7800746796875,1200.306533640625Q1381.1327096796874,1200.0484466406251,1381.4962826796875,1199.806007640625Q1381.8598556796876,1199.563567640625,1382.2336696796874,1199.337234640625L1477.3250516796875,1141.763957940625Q1477.9074216796876,1141.411364540625,1478.5124016796874,1141.099187840625Q1479.1174016796874,1140.787011640625,1479.7422216796874,1140.516696940625Q1480.3670416796874,1140.246382240625,1481.0088016796874,1140.019180740625Q1481.6505616796876,1139.791979340625,1482.3062716796876,1139.608942940625Q1482.9620016796875,1139.425906940625,1483.6286516796874,1139.287883040625Q1484.2952916796876,1139.149859440625,1484.9697716796875,1139.057487040625Q1485.6442716796876,1138.965114640625,1486.3234816796876,1138.918821340625Q1487.0026816796876,1138.872528040625,1487.6834716796875,1138.872527840625Q1488.3642616796874,1138.872528040625,1489.0434716796874,1138.918821340625Q1489.7226916796876,1138.965114640625,1490.3971716796875,1139.057486740625Q1491.0716516796874,1139.149859440625,1491.7383116796875,1139.287883240625Q1492.4049516796874,1139.425906940625,1493.0606716796874,1139.608942940625Q1493.7163816796874,1139.791979340625,1494.3581416796874,1140.019180740625Q1494.9999116796876,1140.246382240625,1495.6247216796876,1140.516696940625Q1496.2495416796876,1140.787011640625,1496.8545416796874,1141.099188340625Q1497.4595316796874,1141.411364540625,1498.0418816796875,1141.763957940625L1593.1332716796876,1199.337226640625Z" fill="#A9D95F" fill-opacity="0.30000001192092896" transform="matrix(-1,0,0,-1,2723.366943359375,2270.98486328125)"/><g clip-path="url(#master_svg9_3_182/3_143)"><rect x="1168.6834106445312" y="963.492431640625" width="134" height="134" rx="67" fill="#A9D95F" fill-opacity="1"/></g></g><g transform="matrix(0,1.000000238418579,-1.000000238418579,0,1684.0001230239868,-652.0002784729004)"><path d="M1651.4498,789.844795Q1651.82364,790.071121,1652.18721,790.31356Q1652.55078,790.556,1652.90341,790.814095Q1653.25604,791.072189,1653.59708,791.345428Q1653.93808,791.618668,1654.26685,791.90654Q1654.59561,792.19442,1654.9115,792.496384Q1655.22739,792.798355,1655.52979,793.113831Q1655.8321799999999,793.429306,1656.12051,793.7576750000001Q1656.40881,794.08606,1656.68251,794.426712Q1656.95622,794.767372,1657.21478,795.119659Q1657.47336,795.471954,1657.71628,795.835197Q1657.9592,796.198441,1658.18602,796.571953Q1658.41284,796.945465,1658.62312,797.328522Q1658.8334399999999,797.711586,1659.02681,798.10347Q1659.22018,798.495354,1659.39626,798.895309Q1659.5723,799.295265,1659.73073,799.702522Q1659.88914,800.109787,1660.02963,800.523567Q1660.17014,800.937363,1660.2924,801.356903Q1660.4147,801.776443,1660.51854,802.200912Q1660.62238,802.6253810000001,1660.70758,803.053986Q1660.79277,803.48259,1660.85916,803.914505Q1660.9255699999999,804.3464280000001,1660.97305,804.780838Q1661.02052,805.21524,1661.04898,805.651306Q1661.07742,806.087372,1661.08679,806.524261Q1661.09618,806.961151,1661.08646,807.3980329999999Q1661.07675,807.834923,1661.0479599999999,808.270966Q1661.01918,808.707008,1660.97137,809.141373Q1660.92355,809.575745,1660.85681,810.007614Q1660.79007,810.439468,1660.70454,810.868004Q1660.61902,811.2965389999999,1660.51486,811.72094Q1660.41069,812.145332,1660.28809,812.5647739999999Q1660.16547,812.984207,1660.02464,813.397896Q1659.88383,813.8115769999999,1659.72508,814.218712L1625.02621,903.21213Q1624.8900899999999,903.56128,1624.74098,903.90508Q1624.59187,904.24887,1624.42999,904.5868399999999Q1624.2681,904.9248,1624.09367,905.25647Q1623.91922,905.58812,1623.7324800000001,905.91301Q1623.54575,906.23792,1623.34697,906.5555899999999Q1623.1481899999999,906.87326,1622.93767,907.18326Q1622.72714,907.4932699999999,1622.50514,907.79517Q1622.28313,908.09708,1622.04996,908.39044Q1621.8168,908.68382,1621.57283,908.96826Q1621.32886,909.25272,1621.07439,909.5278000000001Q1620.81992,909.8029,1620.55533,910.06827Q1620.29074,910.33362,1620.01639,910.58888Q1619.74205,910.84415,1619.45834,911.08896Q1619.17462,911.3338,1618.88193,911.56781Q1618.58923,911.80182,1618.28796,912.0246999999999Q1617.98671,912.24756,1617.67731,912.4590000000001Q1617.36792,912.67044,1617.05083,912.87015Q1616.73373,913.06985,1616.40939,913.2575400000001Q1616.08505,913.4452200000001,1615.75388,913.62064Q1615.42273,913.79605,1615.0852399999999,913.9589100000001Q1614.74774,914.1218,1614.40439,914.2719099999999Q1614.06104,914.42203,1613.7123,914.55917Q1613.36356,914.69632,1613.00992,914.8203100000001Q1612.65628,914.94431,1612.29825,915.0549599999999Q1611.94022,915.16562,1611.5783099999999,915.26279Q1611.2164,915.35995,1610.85109,915.4435Q1610.48578,915.5270399999999,1610.11758,915.59683Q1609.7494,915.66661,1609.37886,915.7225599999999Q1609.0083300000001,915.77853,1608.63597,915.82057Q1608.2636,915.86261,1607.8899099999999,915.89066Q1607.51622,915.9187,1607.14174,915.93274Q1606.76726,915.94678,1606.3925199999999,915.94678L1485.607468,915.94678Q1485.232735,915.94678,1484.858261,915.9327499999999Q1484.483788,915.91872,1484.1101,915.89067Q1483.736412,915.86261,1483.36404,915.82057Q1482.991665,915.77853,1482.621124,915.72258Q1482.250587,915.6666299999999,1481.882408,915.59683Q1481.514229,915.5270399999999,1481.148918,915.4435100000001Q1480.783611,915.35997,1480.421684,915.2628Q1480.059761,915.16562,1479.701729,915.0549599999999Q1479.3437,914.94431,1478.99007,914.8203100000001Q1478.636436,914.69632,1478.287701,914.55917Q1477.938965,914.42203,1477.595608,914.2719099999999Q1477.252251,914.1218,1476.914753,913.9589100000001Q1476.577263,913.79605,1476.246109,913.62064Q1475.914955,913.4452200000001,1475.590607,913.2575400000001Q1475.266258,913.06985,1474.949162,912.8701599999999Q1474.632069,912.67044,1474.322678,912.4590000000001Q1474.01329,912.24756,1473.712044,912.02469Q1473.410797,911.80182,1473.118103,911.56781Q1472.825413,911.3338,1472.541695,911.08897Q1472.257973,910.84415,1471.983627,910.58888Q1471.709282,910.33362,1471.444691,910.06825Q1471.180099,909.8029,1470.925632,909.5278000000001Q1470.671165,909.25272,1470.427181,908.96826Q1470.183197,908.68382,1469.950039,908.39044Q1469.716888,908.09708,1469.494884,907.79518Q1469.272884,907.49329,1469.062347,907.18327Q1468.8518100000001,906.87328,1468.65303,906.5556Q1468.454254,906.23792,1468.267517,905.91301Q1468.08078,905.58812,1467.906349,905.25647Q1467.731918,904.9248,1467.57003,904.5868399999999Q1467.408142,904.24887,1467.259026,903.90508Q1467.109909,903.56128,1466.973774,903.21213L1432.274918,814.218719Q1432.116173,813.811584,1431.975363,813.397903Q1431.834553,812.984222,1431.711946,812.564789Q1431.58934,812.145348,1431.48517,811.720955Q1431.381001,811.296555,1431.295466,810.868011Q1431.209934,810.439476,1431.1432,810.007607Q1431.076467,809.575745,1431.02866,809.141373Q1430.980853,808.707016,1430.952065,808.270966Q1430.923276,807.83493,1430.91356,807.398041Q1430.903845,806.961166,1430.913219,806.524269Q1430.922596,806.087379,1430.951046,805.651314Q1430.979495,805.21524,1431.026964,804.780838Q1431.074432,804.346436,1431.14083,803.9145129999999Q1431.207228,803.4825969999999,1431.292428,803.053993Q1431.377628,802.625389,1431.481467,802.200912Q1431.585306,801.776443,1431.707587,801.356903Q1431.829868,800.937378,1431.970356,800.5235749999999Q1432.110846,800.109787,1432.269273,799.70253Q1432.427702,799.295265,1432.603766,798.895309Q1432.779832,798.495361,1432.973198,798.103477Q1433.166565,797.711594,1433.376863,797.328529Q1433.587162,796.945465,1433.813993,796.57196Q1434.040822,796.198448,1434.283749,795.835205Q1434.526676,795.471954,1434.785238,795.119667Q1435.043799,794.76738,1435.317501,794.42672Q1435.591204,794.086067,1435.879524,793.75769Q1436.167847,793.429314,1436.470234,793.113838Q1436.772621,792.79837,1437.088501,792.496399Q1437.404379,792.194427,1437.733145,791.906548Q1438.061913,791.618668,1438.402941,791.345428Q1438.743969,791.072189,1439.096603,790.814102Q1439.449238,790.556015,1439.812811,790.313576Q1440.176384,790.071136,1440.550198,789.844803L1535.64158,732.2715263Q1536.22395,731.9189329,1536.82893,731.6067562Q1537.43393,731.29458,1538.05875,731.0242653Q1538.68357,730.7539506,1539.32533,730.5267491Q1539.96709,730.2995477,1540.6228,730.1165113Q1541.27853,729.9334753,1541.94518,729.7954514Q1542.61182,729.6574278,1543.2863,729.5650554Q1543.9608,729.472683,1544.64001,729.4263897Q1545.31921,729.3800964,1546,729.3800962Q1546.68079,729.3800964,1547.36,729.4263897Q1548.0392200000001,729.472683,1548.7137,729.5650551Q1549.38818,729.6574278,1550.05484,729.7954516Q1550.72148,729.9334753,1551.3772,730.1165113Q1552.03291,730.2995477,1552.6746699999999,730.5267491Q1553.31644,730.7539506,1553.94125,731.0242653Q1554.56607,731.29458,1555.1710699999999,731.6067567Q1555.77606,731.9189329,1556.35841,732.2715263L1651.4498,789.844795Z" fill="#F3CB48" fill-opacity="0.30000001192092896" transform="matrix(-1,0,0,-1,2840,1452)"/><g clip-path="url(#master_svga_3_183/3_143)"><rect x="1226.9999389648438" y="554" width="134" height="134" rx="67" fill="#F3CB48" fill-opacity="1"/></g></g><g transform="matrix(0.7071069478988647,-0.7071069478988647,0.7071069478988647,0.7071069478988647,-203.4580346623552,239.1908818205702)"><path d="M670.4498,639.03571296875Q670.8236400000001,639.26203896875,671.18721,639.50447796875Q671.55078,639.74691796875,671.90341,640.00501296875Q672.25604,640.26310696875,672.59708,640.53634596875Q672.93808,640.80958596875,673.26685,641.09745796875Q673.59561,641.38533796875,673.9114999999999,641.68730196875Q674.22739,641.98927296875,674.52979,642.30474896875Q674.83218,642.62022396875,675.12051,642.9485929687501Q675.40881,643.27697796875,675.68251,643.61762996875Q675.95622,643.95828996875,676.21478,644.31057696875Q676.47336,644.66287196875,676.71628,645.02611496875Q676.9592,645.38935896875,677.18602,645.76287096875Q677.41284,646.13638296875,677.62312,646.51943996875Q677.83344,646.90250396875,678.0268100000001,647.29438796875Q678.22018,647.68627196875,678.39626,648.08622696875Q678.5723,648.48618296875,678.73073,648.89343996875Q678.88914,649.30070496875,679.02963,649.71448496875Q679.17014,650.12828096875,679.2924,650.54782096875Q679.4147,650.96736096875,679.51854,651.39182996875Q679.62238,651.8162989687501,679.70758,652.24490396875Q679.79277,652.67350796875,679.85916,653.10542296875Q679.92557,653.5373459687501,679.9730500000001,653.97175596875Q680.02052,654.40615796875,680.04898,654.84222396875Q680.07742,655.27828996875,680.0867900000001,655.71517896875Q680.09618,656.15206896875,680.08646,656.5889509687499Q680.07675,657.02584096875,680.04796,657.46188396875Q680.01918,657.89792596875,679.97137,658.33229096875Q679.92355,658.76666296875,679.85681,659.19853196875Q679.79007,659.63038596875,679.70454,660.05892196875Q679.61902,660.4874569687499,679.51486,660.91185796875Q679.4106899999999,661.33624996875,679.28809,661.7556919687499Q679.16547,662.17512496875,679.02464,662.58881396875Q678.88383,663.0024949687499,678.7250799999999,663.40962996875L644.02621,752.40304796875Q643.89009,752.75219796875,643.74098,753.09599796875Q643.59187,753.43978796875,643.42999,753.7777579687499Q643.2681,754.11571796875,643.09367,754.44738796875Q642.91922,754.77903796875,642.73248,755.10392796875Q642.54575,755.42883796875,642.34697,755.7465079687499Q642.14819,756.06417796875,641.93767,756.37417796875Q641.72714,756.6841879687499,641.50514,756.98608796875Q641.28313,757.28799796875,641.04996,757.58135796875Q640.8168000000001,757.87473796875,640.5728300000001,758.15917796875Q640.32886,758.44363796875,640.07439,758.7187179687501Q639.81992,758.99381796875,639.55533,759.25918796875Q639.29074,759.52453796875,639.01639,759.77979796875Q638.7420500000001,760.03506796875,638.45834,760.27987796875Q638.17462,760.52471796875,637.88193,760.75872796875Q637.58923,760.99273796875,637.28796,761.2156179687499Q636.98671,761.43847796875,636.67731,761.6499179687501Q636.36792,761.86135796875,636.05083,762.06106796875Q635.73373,762.26076796875,635.40939,762.4484579687501Q635.08505,762.6361379687501,634.75388,762.81155796875Q634.42273,762.98696796875,634.08524,763.1498279687501Q633.74774,763.31271796875,633.40439,763.4628279687499Q633.06104,763.61294796875,632.7123,763.75008796875Q632.36356,763.88723796875,632.00992,764.0112279687501Q631.65628,764.13522796875,631.29825,764.2458779687499Q630.94022,764.35653796875,630.57831,764.45370796875Q630.2164,764.55086796875,629.85109,764.63441796875Q629.48578,764.7179579687499,629.11758,764.78774796875Q628.7494,764.85752796875,628.37886,764.9134779687499Q628.00833,764.96944796875,627.63597,765.01148796875Q627.2636,765.05352796875,626.88991,765.08157796875Q626.51622,765.10961796875,626.14174,765.12365796875Q625.76726,765.13769796875,625.39252,765.13769796875L504.607468,765.13769796875Q504.232735,765.13769796875,503.85826099999997,765.1236679687499Q503.483788,765.10963796875,503.1101,765.08158796875Q502.736412,765.05352796875,502.36404,765.01148796875Q501.991665,764.96944796875,501.621124,764.91349796875Q501.250587,764.8575479687499,500.882408,764.78774796875Q500.514229,764.7179579687499,500.148918,764.6344279687501Q499.783611,764.55088796875,499.421684,764.45371796875Q499.059761,764.35653796875,498.701729,764.2458779687499Q498.3437,764.13522796875,497.99007,764.0112279687501Q497.636436,763.88723796875,497.28770099999997,763.75008796875Q496.938965,763.61294796875,496.59560799999997,763.4628279687499Q496.252251,763.31271796875,495.914753,763.1498279687501Q495.577263,762.98696796875,495.246109,762.81155796875Q494.914955,762.6361379687501,494.590607,762.4484579687501Q494.266258,762.26076796875,493.949162,762.0610779687499Q493.632069,761.86135796875,493.322678,761.6499179687501Q493.01329,761.43847796875,492.712044,761.21560796875Q492.410797,760.99273796875,492.118103,760.75872796875Q491.825413,760.52471796875,491.541695,760.27988796875Q491.257973,760.03506796875,490.983627,759.77979796875Q490.70928200000003,759.52453796875,490.444691,759.25916796875Q490.180099,758.99381796875,489.925632,758.7187179687501Q489.671165,758.44363796875,489.427181,758.15917796875Q489.183197,757.87473796875,488.950039,757.58135796875Q488.716888,757.28799796875,488.494884,756.98609796875Q488.272884,756.68420796875,488.062347,756.37418796875Q487.85181,756.06419796875,487.65303,755.74651796875Q487.454254,755.42883796875,487.267517,755.10392796875Q487.08078,754.77903796875,486.906349,754.44738796875Q486.731918,754.11571796875,486.57003,753.7777579687499Q486.408142,753.43978796875,486.259026,753.09599796875Q486.109909,752.75219796875,485.973774,752.40304796875L451.274918,663.40963696875Q451.116173,663.00250196875,450.975363,662.58882096875Q450.834553,662.17513996875,450.711946,661.75570696875Q450.58934,661.33626596875,450.48517,660.91187296875Q450.381001,660.48747296875,450.295466,660.05892896875Q450.209934,659.63039396875,450.1432,659.19852496875Q450.076467,658.76666296875,450.02866,658.33229096875Q449.980853,657.89793396875,449.952065,657.46188396875Q449.923276,657.02584796875,449.91356,656.58895896875Q449.903845,656.15208396875,449.913219,655.71518696875Q449.922596,655.27829696875,449.951046,654.84223196875Q449.979495,654.40615796875,450.026964,653.97175596875Q450.074432,653.53735396875,450.14083,653.1054309687499Q450.207228,652.6735149687499,450.292428,652.24491096875Q450.377628,651.81630696875,450.481467,651.39182996875Q450.585306,650.96736096875,450.707587,650.54782096875Q450.829868,650.12829596875,450.970356,649.7144929687499Q451.110846,649.30070496875,451.269273,648.89344796875Q451.427702,648.48618296875,451.603766,648.08622696875Q451.779832,647.68627896875,451.973198,647.29439496875Q452.166565,646.90251196875,452.376863,646.51944696875Q452.587162,646.13638296875,452.813993,645.76287796875Q453.040822,645.38936596875,453.283749,645.02612296875Q453.526676,644.66287196875,453.785238,644.31058496875Q454.043799,643.95829796875,454.317501,643.61763796875Q454.591204,643.27698496875,454.879524,642.94860796875Q455.167847,642.62023196875,455.470234,642.30475596875Q455.772621,641.98928796875,456.088501,641.68731696875Q456.404379,641.38534496875,456.733145,641.09746596875Q457.061913,640.80958596875,457.402941,640.53634596875Q457.743969,640.26310696875,458.096603,640.00501996875Q458.449238,639.74693296875,458.812811,639.50449396875Q459.176384,639.26205396875,459.550198,639.03572096875L554.64158,581.46244426875Q555.2239500000001,581.10985086875,555.82893,580.79767416875Q556.43393,580.48549796875,557.05875,580.21518326875Q557.68357,579.94486856875,558.32533,579.71766706875Q558.96709,579.49046566875,559.6228,579.30742926875Q560.27853,579.12439326875,560.9451799999999,578.98636936875Q561.61182,578.84834576875,562.2863,578.75597336875Q562.9608000000001,578.66360096875,563.64001,578.61730766875Q564.31921,578.57101436875,565,578.57101416875Q565.68079,578.57101436875,566.36,578.61730766875Q567.03922,578.66360096875,567.7137,578.75597306875Q568.38818,578.84834576875,569.05484,578.98636956875Q569.72148,579.12439326875,570.3772,579.30742926875Q571.03291,579.49046566875,571.67467,579.71766706875Q572.3164400000001,579.94486856875,572.94125,580.21518326875Q573.56607,580.48549796875,574.17107,580.79767466875Q574.77606,581.10985086875,575.35841,581.46244426875L670.4498,639.03571296875Z" fill="#47CFEA" fill-opacity="0.30000001192092896" transform="matrix(-1,0,0,-1,878,1150.3818359375)"/><g clip-path="url(#master_svgb_3_185/3_143)"><rect x="245.99993896484375" y="403.19091796875" width="134" height="134" rx="67" fill="#47CFEA" fill-opacity="1"/></g></g><g transform="matrix(0,-1.000000238418579,1.000000238418579,0,-649.0002441406396,887.0000894069672)"><path d="M602.4498,1041.8448560351562Q602.8236400000001,1042.0711820351562,603.18721,1042.3136210351563Q603.55078,1042.5560610351563,603.90341,1042.8141560351562Q604.25604,1043.0722500351562,604.59708,1043.3454890351563Q604.93808,1043.6187290351563,605.26685,1043.9066010351562Q605.59561,1044.1944810351563,605.9114999999999,1044.4964450351563Q606.22739,1044.7984160351562,606.52979,1045.1138920351564Q606.83218,1045.4293670351562,607.12051,1045.7577360351563Q607.40881,1046.0861210351563,607.68251,1046.4267730351562Q607.95622,1046.7674330351563,608.21478,1047.1197200351562Q608.47336,1047.4720150351563,608.71628,1047.8352580351561Q608.9592,1048.1985020351563,609.18602,1048.5720140351561Q609.41284,1048.9455260351563,609.62312,1049.3285830351563Q609.83344,1049.7116470351561,610.0268100000001,1050.1035310351563Q610.22018,1050.4954150351562,610.39626,1050.8953700351562Q610.5723,1051.2953260351562,610.73073,1051.7025830351563Q610.88914,1052.1098480351563,611.02963,1052.5236280351562Q611.17014,1052.9374240351563,611.2924,1053.3569640351564Q611.4147,1053.7765040351562,611.51854,1054.2009730351563Q611.62238,1054.6254420351563,611.70758,1055.0540470351561Q611.79277,1055.4826510351563,611.85916,1055.9145660351562Q611.92557,1056.3464890351563,611.9730500000001,1056.7808990351562Q612.02052,1057.2153010351562,612.04898,1057.6513670351562Q612.07742,1058.0874330351562,612.0867900000001,1058.5243220351563Q612.09618,1058.9612120351562,612.08646,1059.3980940351562Q612.07675,1059.8349840351561,612.04796,1060.2710270351563Q612.01918,1060.7070690351563,611.97137,1061.1414340351562Q611.92355,1061.5758060351563,611.85681,1062.0076750351564Q611.79007,1062.4395290351563,611.70454,1062.8680650351562Q611.61902,1063.2966000351562,611.51486,1063.7210010351562Q611.4106899999999,1064.1453930351563,611.28809,1064.5648350351562Q611.16547,1064.9842680351562,611.02464,1065.3979570351562Q610.88383,1065.8116380351562,610.7250799999999,1066.2187730351563L576.02621,1155.2121910351561Q575.89009,1155.5613410351561,575.74098,1155.9051410351562Q575.59187,1156.2489310351561,575.42999,1156.5869010351562Q575.2681,1156.9248610351563,575.09367,1157.2565310351563Q574.91922,1157.5881810351561,574.73248,1157.9130710351562Q574.54575,1158.2379810351563,574.34697,1158.5556510351562Q574.14819,1158.8733210351563,573.93767,1159.1833210351563Q573.72714,1159.4933310351562,573.50514,1159.7952310351563Q573.28313,1160.0971410351563,573.04996,1160.3905010351564Q572.8168000000001,1160.6838810351562,572.5728300000001,1160.9683210351564Q572.32886,1161.2527810351562,572.07439,1161.5278610351563Q571.81992,1161.8029610351562,571.55533,1162.0683310351562Q571.29074,1162.3336810351561,571.01639,1162.5889410351563Q570.7420500000001,1162.8442110351561,570.45834,1163.0890210351563Q570.17462,1163.3338610351561,569.88193,1163.5678710351563Q569.58923,1163.8018810351562,569.28796,1164.0247610351562Q568.98671,1164.2476210351563,568.67731,1164.4590610351563Q568.36792,1164.6705010351563,568.05083,1164.8702110351562Q567.73373,1165.0699110351563,567.40939,1165.2576010351563Q567.08505,1165.4452810351563,566.75388,1165.6207010351563Q566.42273,1165.7961110351562,566.08524,1165.9589710351563Q565.74774,1166.1218610351561,565.40439,1166.2719710351562Q565.06104,1166.4220910351562,564.7123,1166.5592310351562Q564.36356,1166.6963810351563,564.00992,1166.8203710351563Q563.65628,1166.9443710351563,563.29825,1167.0550210351562Q562.94022,1167.1656810351562,562.57831,1167.2628510351562Q562.2164,1167.3600110351563,561.85109,1167.4435610351563Q561.48578,1167.5271010351562,561.11758,1167.5968910351562Q560.7494,1167.6666710351562,560.37886,1167.7226210351562Q560.00833,1167.7785910351563,559.63597,1167.8206310351563Q559.2636,1167.8626710351562,558.88991,1167.8907210351563Q558.51622,1167.9187610351562,558.14174,1167.9328010351562Q557.76726,1167.9468410351562,557.39252,1167.9468410351562L436.607468,1167.9468410351562Q436.232735,1167.9468410351562,435.85826099999997,1167.9328110351562Q435.483788,1167.9187810351564,435.1101,1167.8907310351563Q434.736412,1167.8626710351562,434.36404,1167.8206310351563Q433.991665,1167.7785910351563,433.621124,1167.7226410351564Q433.250587,1167.6666910351562,432.882408,1167.5968910351562Q432.514229,1167.5271010351562,432.148918,1167.4435710351563Q431.783611,1167.3600310351562,431.421684,1167.2628610351562Q431.059761,1167.1656810351562,430.701729,1167.0550210351562Q430.3437,1166.9443710351563,429.99007,1166.8203710351563Q429.636436,1166.6963810351563,429.28770099999997,1166.5592310351562Q428.938965,1166.4220910351562,428.59560799999997,1166.2719710351562Q428.252251,1166.1218610351561,427.914753,1165.9589710351563Q427.577263,1165.7961110351562,427.246109,1165.6207010351563Q426.914955,1165.4452810351563,426.590607,1165.2576010351563Q426.266258,1165.0699110351563,425.949162,1164.8702210351562Q425.632069,1164.6705010351563,425.322678,1164.4590610351563Q425.01329,1164.2476210351563,424.712044,1164.0247510351562Q424.410797,1163.8018810351562,424.118103,1163.5678710351563Q423.825413,1163.3338610351561,423.541695,1163.0890310351563Q423.257973,1162.8442110351561,422.983627,1162.5889410351563Q422.70928200000003,1162.3336810351561,422.444691,1162.0683110351563Q422.180099,1161.8029610351562,421.925632,1161.5278610351563Q421.671165,1161.2527810351562,421.427181,1160.9683210351564Q421.183197,1160.6838810351562,420.950039,1160.3905010351564Q420.716888,1160.0971410351563,420.494884,1159.7952410351563Q420.272884,1159.4933510351561,420.062347,1159.1833310351562Q419.85181,1158.8733410351563,419.65303,1158.5556610351562Q419.454254,1158.2379810351563,419.267517,1157.9130710351562Q419.08078,1157.5881810351561,418.906349,1157.2565310351563Q418.731918,1156.9248610351563,418.57003,1156.5869010351562Q418.408142,1156.2489310351561,418.259026,1155.9051410351562Q418.109909,1155.5613410351561,417.973774,1155.2121910351561L383.274918,1066.2187800351562Q383.116173,1065.8116450351563,382.975363,1065.3979640351563Q382.834553,1064.9842830351563,382.711946,1064.5648500351563Q382.58934,1064.1454090351563,382.48517,1063.7210160351563Q382.381001,1063.2966160351561,382.295466,1062.8680720351563Q382.209934,1062.4395370351563,382.1432,1062.0076680351563Q382.076467,1061.5758060351563,382.02866,1061.1414340351562Q381.980853,1060.7070770351563,381.952065,1060.2710270351563Q381.923276,1059.8349910351562,381.91356,1059.3981020351562Q381.903845,1058.9612270351563,381.913219,1058.5243300351563Q381.922596,1058.0874400351563,381.951046,1057.6513750351562Q381.979495,1057.2153010351562,382.026964,1056.7808990351562Q382.074432,1056.3464970351563,382.14083,1055.9145740351562Q382.207228,1055.4826580351562,382.292428,1055.0540540351562Q382.377628,1054.6254500351563,382.481467,1054.2009730351563Q382.585306,1053.7765040351562,382.707587,1053.3569640351564Q382.829868,1052.9374390351563,382.970356,1052.5236360351562Q383.110846,1052.1098480351563,383.269273,1051.7025910351563Q383.427702,1051.2953260351562,383.603766,1050.8953700351562Q383.779832,1050.4954220351563,383.973198,1050.1035380351564Q384.166565,1049.7116550351564,384.376863,1049.3285900351561Q384.587162,1048.9455260351563,384.813993,1048.5720210351562Q385.040822,1048.1985090351563,385.283749,1047.8352660351563Q385.526676,1047.4720150351563,385.785238,1047.1197280351562Q386.043799,1046.7674410351563,386.317501,1046.4267810351562Q386.591204,1046.0861280351562,386.879524,1045.7577510351562Q387.167847,1045.4293750351562,387.470234,1045.1138990351562Q387.772621,1044.7984310351562,388.088501,1044.4964600351564Q388.404379,1044.1944880351562,388.733145,1043.9066090351562Q389.061913,1043.6187290351563,389.402941,1043.3454890351563Q389.743969,1043.0722500351562,390.096603,1042.8141630351563Q390.449238,1042.5560760351564,390.812811,1042.3136370351563Q391.176384,1042.0711970351563,391.550198,1041.8448640351562L486.64158,984.2715873351563Q487.22395,983.9189939351562,487.82893,983.6068172351562Q488.43393000000003,983.2946410351562,489.05875000000003,983.0243263351563Q489.68357000000003,982.7540116351563,490.32533,982.5268101351562Q490.96709,982.2996087351562,491.6228,982.1165723351562Q492.27853,981.9335363351563,492.94518,981.7955124351563Q493.61181999999997,981.6574888351563,494.2863,981.5651164351563Q494.9608,981.4727440351562,495.64001,981.4264507351562Q496.31921,981.3801574351562,497,981.3801572351563Q497.68079,981.3801574351562,498.36,981.4264507351562Q499.03922,981.4727440351562,499.7137,981.5651161351562Q500.38818000000003,981.6574888351563,501.05484,981.7955126351562Q501.72148000000004,981.9335363351563,502.3772,982.1165723351562Q503.03291,982.2996087351562,503.67467,982.5268101351562Q504.31644,982.7540116351563,504.94124999999997,983.0243263351563Q505.56606999999997,983.2946410351562,506.17107,983.6068177351563Q506.77606000000003,983.9189939351562,507.35841,984.2715873351563L602.4498,1041.8448560351562Z" fill="#496FC1" fill-opacity="0.30000001192092896" transform="matrix(-1,0,0,-1,742,1956.0001220703125)"/><g clip-path="url(#master_svgc_3_186/3_143)"><rect x="177.99993896484375" y="806.0000610351562" width="134" height="134" rx="67" fill="#496FC1" fill-opacity="1"/></g></g><path d="M997.4498,385.844795Q997.8236400000001,386.071121,998.18721,386.31356Q998.55078,386.556,998.90341,386.814095Q999.25604,387.072189,999.59708,387.34542799999997Q999.93808,387.618668,1000.26685,387.90654Q1000.59561,388.19442,1000.9114999999999,388.49638400000003Q1001.22739,388.798355,1001.52979,389.113831Q1001.83218,389.429306,1002.12051,389.757675Q1002.40881,390.08606,1002.68251,390.426712Q1002.95622,390.767372,1003.21478,391.119659Q1003.47336,391.471954,1003.71628,391.835197Q1003.9592,392.198441,1004.18602,392.571953Q1004.41284,392.945465,1004.62312,393.328522Q1004.83344,393.711586,1005.0268100000001,394.10347Q1005.22018,394.495354,1005.39626,394.895309Q1005.5723,395.295265,1005.73073,395.702522Q1005.88914,396.109787,1006.02963,396.523567Q1006.17014,396.937363,1006.2924,397.356903Q1006.4147,397.776443,1006.51854,398.200912Q1006.62238,398.625381,1006.70758,399.053986Q1006.79277,399.48259,1006.85916,399.914505Q1006.92557,400.346428,1006.9730500000001,400.780838Q1007.02052,401.21524,1007.04898,401.651306Q1007.07742,402.087372,1007.0867900000001,402.524261Q1007.09618,402.961151,1007.08646,403.398033Q1007.07675,403.834923,1007.04796,404.270966Q1007.01918,404.707008,1006.97137,405.141373Q1006.92355,405.575745,1006.85681,406.007614Q1006.79007,406.43946800000003,1006.70454,406.868004Q1006.61902,407.296539,1006.51486,407.72094Q1006.4106899999999,408.145332,1006.28809,408.564774Q1006.16547,408.98420699999997,1006.02464,409.397896Q1005.88383,409.811577,1005.7250799999999,410.218712L971.02621,499.21213Q970.89009,499.56128,970.74098,499.90508Q970.59187,500.24887,970.42999,500.58684Q970.2681,500.9248,970.09367,501.25647000000004Q969.91922,501.58812,969.73248,501.91301Q969.54575,502.23792000000003,969.34697,502.55559Q969.14819,502.87325999999996,968.93767,503.18326Q968.72714,503.49327,968.50514,503.79517Q968.28313,504.09708,968.04996,504.39044Q967.8168000000001,504.68381999999997,967.5728300000001,504.96826Q967.32886,505.25272,967.07439,505.5278Q966.81992,505.8029,966.55533,506.06827Q966.29074,506.33362,966.01639,506.58888Q965.7420500000001,506.84415,965.45834,507.08896Q965.17462,507.3338,964.88193,507.56781Q964.58923,507.80182,964.28796,508.0247Q963.98671,508.24756,963.67731,508.459Q963.36792,508.67044,963.05083,508.87014999999997Q962.73373,509.06985,962.40939,509.25754Q962.08505,509.44522,961.75388,509.62064Q961.42273,509.79605000000004,961.08524,509.95891Q960.74774,510.1218,960.40439,510.27191Q960.06104,510.42203,959.7123,510.55917Q959.36356,510.69632,959.00992,510.82031Q958.65628,510.94431,958.29825,511.05496Q957.94022,511.16562,957.57831,511.26279Q957.2164,511.35995,956.85109,511.4435Q956.48578,511.52704,956.11758,511.59683Q955.7494,511.66661,955.37886,511.72256Q955.00833,511.77853,954.63597,511.82057Q954.2636,511.86261,953.88991,511.89066Q953.51622,511.9187,953.14174,511.93273999999997Q952.76726,511.94678,952.39252,511.94678L831.607468,511.94678Q831.232735,511.94678,830.858261,511.93275Q830.483788,511.91872,830.1101,511.89067Q829.736412,511.86261,829.36404,511.82057Q828.991665,511.77853,828.621124,511.72258Q828.250587,511.66663,827.8824079999999,511.59683Q827.514229,511.52704,827.148918,511.44351Q826.783611,511.35997,826.421684,511.26279999999997Q826.059761,511.16562,825.701729,511.05496Q825.3437,510.94431,824.9900700000001,510.82031Q824.636436,510.69632,824.287701,510.55917Q823.938965,510.42203,823.595608,510.27191Q823.252251,510.1218,822.914753,509.95891Q822.577263,509.79605000000004,822.246109,509.62064Q821.914955,509.44522,821.590607,509.25754Q821.266258,509.06985,820.949162,508.87016Q820.632069,508.67044,820.322678,508.459Q820.01329,508.24756,819.712044,508.02468999999996Q819.410797,507.80182,819.118103,507.56781Q818.825413,507.3338,818.541695,507.08897Q818.257973,506.84415,817.983627,506.58888Q817.709282,506.33362,817.444691,506.06825000000003Q817.180099,505.8029,816.925632,505.5278Q816.671165,505.25272,816.427181,504.96826Q816.183197,504.68381999999997,815.950039,504.39044Q815.716888,504.09708,815.494884,503.79517999999996Q815.272884,503.49329,815.062347,503.18327Q814.85181,502.87328,814.65303,502.5556Q814.454254,502.23792000000003,814.267517,501.91301Q814.08078,501.58812,813.906349,501.25647000000004Q813.731918,500.9248,813.57003,500.58684Q813.408142,500.24887,813.259026,499.90508Q813.109909,499.56128,812.973774,499.21213L778.274918,410.21871899999996Q778.116173,409.811584,777.975363,409.397903Q777.834553,408.984222,777.711946,408.564789Q777.58934,408.145348,777.48517,407.720955Q777.381001,407.296555,777.295466,406.868011Q777.209934,406.439476,777.1432,406.007607Q777.076467,405.575745,777.02866,405.141373Q776.980853,404.707016,776.952065,404.270966Q776.923276,403.83493,776.91356,403.39804100000003Q776.903845,402.961166,776.913219,402.524269Q776.922596,402.087379,776.951046,401.651314Q776.979495,401.21524,777.026964,400.780838Q777.074432,400.346436,777.14083,399.914513Q777.207228,399.482597,777.292428,399.053993Q777.377628,398.625389,777.481467,398.200912Q777.585306,397.776443,777.707587,397.356903Q777.829868,396.93737799999997,777.970356,396.523575Q778.110846,396.109787,778.269273,395.70253Q778.427702,395.295265,778.603766,394.895309Q778.779832,394.495361,778.973198,394.103477Q779.166565,393.711594,779.376863,393.328529Q779.587162,392.945465,779.813993,392.57196Q780.040822,392.198448,780.283749,391.835205Q780.526676,391.471954,780.785238,391.119667Q781.043799,390.76738,781.317501,390.42672Q781.591204,390.086067,781.879524,389.75769Q782.167847,389.429314,782.470234,389.113838Q782.772621,388.79837,783.088501,388.496399Q783.404379,388.194427,783.733145,387.906548Q784.061913,387.618668,784.402941,387.34542799999997Q784.743969,387.072189,785.096603,386.814102Q785.449238,386.556015,785.812811,386.313576Q786.176384,386.071136,786.550198,385.844803L881.64158,328.2715263Q882.2239500000001,327.9189329,882.82893,327.6067562Q883.43393,327.29458,884.05875,327.0242653Q884.68357,326.7539506,885.32533,326.5267491Q885.96709,326.2995477,886.6228,326.1165113Q887.27853,325.9334753,887.9451799999999,325.7954514Q888.61182,325.6574278,889.2863,325.5650554Q889.9608000000001,325.472683,890.64001,325.4263897Q891.31921,325.3800964,892,325.3800962Q892.68079,325.3800964,893.36,325.4263897Q894.03922,325.472683,894.7137,325.5650551Q895.38818,325.6574278,896.05484,325.7954516Q896.72148,325.9334753,897.3772,326.1165113Q898.03291,326.2995477,898.67467,326.5267491Q899.3164400000001,326.7539506,899.94125,327.0242653Q900.56607,327.29458,901.17107,327.6067567Q901.77606,327.9189329,902.35841,328.2715263L997.4498,385.844795Z" fill="#EB5A5A" fill-opacity="0.30000001192092896" transform="matrix(-1,0,0,-1,1532,644)"/><g clip-path="url(#master_svgd_3_143)"><rect x="572.9999389648438" y="150" width="134" height="134" rx="67" fill="#EB5A5A" fill-opacity="1"/></g></g></svg>